<svg xmlns="http://www.w3.org/2000/svg" xmlns:xlink="http://www.w3.org/1999/xlink" viewBox="0 0 474.29 458.34"><defs><style>.cls-1{fill:url(#linear-gradient);}.cls-2{fill:none;}.cls-3{fill:url(#linear-gradient-2);}.cls-4{fill:#c90087;}.cls-5{opacity:0.3;fill:url(#linear-gradient-3);}.cls-6{opacity:0.5;fill:url(#linear-gradient-4);}.cls-7{fill:#00abeb;opacity:0.2;}.cls-8{fill:url(#linear-gradient-5);}.cls-9{opacity:0.9;fill:url(#linear-gradient-6);}</style><linearGradient id="linear-gradient" y1="136.08" x2="420.79" y2="136.08" gradientUnits="userSpaceOnUse"><stop offset="0" stop-color="#32569f"/><stop offset="1" stop-color="#213362"/></linearGradient><linearGradient id="linear-gradient-2" x1="92.78" y1="319.61" x2="474.29" y2="319.61" gradientUnits="userSpaceOnUse"><stop offset="0" stop-color="#71237d"/><stop offset="0.24" stop-color="#922689"/><stop offset="1" stop-color="#c90087"/></linearGradient><linearGradient id="linear-gradient-3" x1="240.39" y1="242.89" x2="474.29" y2="242.89" gradientUnits="userSpaceOnUse"><stop offset="0" stop-color="#dd97bd"/><stop offset="1" stop-color="#c90087"/></linearGradient><linearGradient id="linear-gradient-4" x1="240.39" y1="344.14" x2="373.38" y2="344.14" gradientUnits="userSpaceOnUse"><stop offset="0" stop-color="#fff"/><stop offset="1" stop-color="#c90087"/></linearGradient><linearGradient id="linear-gradient-5" x1="186.02" y1="174.04" x2="151.91" y2="233.12" gradientUnits="userSpaceOnUse"><stop offset="0" stop-color="#00abe7" stop-opacity="0.3"/><stop offset="0.26" stop-color="#0694ce" stop-opacity="0.24"/><stop offset="0.73" stop-color="#17598c" stop-opacity="0.09"/><stop offset="1" stop-color="#213362" stop-opacity="0"/></linearGradient><linearGradient id="linear-gradient-6" x1="301.08" y1="74.62" x2="301.08" y2="214.49" gradientUnits="userSpaceOnUse"><stop offset="0.25" stop-color="#00abe7" stop-opacity="0.3"/><stop offset="0.43" stop-color="#0988c1" stop-opacity="0.21"/><stop offset="0.8" stop-color="#1b4b7c" stop-opacity="0.06"/><stop offset="1" stop-color="#213362" stop-opacity="0"/></linearGradient></defs><title>Ресурс 2</title><g id="Слой_2" data-name="Слой 2"><g id="Layer_1" data-name="Layer 1"><path class="cls-1" d="M170.31,253.28l-52.85-40.05,93-1.89L241,123.51l31.6,91,8.78-3c57.44-19.47,99.24-28.66,139.44-37.69l-120.25-2.44L241,0,181.38,171.36,0,175.06l128.05,97.1C141.47,265.92,155.61,259.58,170.31,253.28Z"/><path class="cls-2" d="M170.31,253.28l-52.85-40.05,93-1.89L241,123.51l31.6,91,7.85-3c49.75-16.08,100.17-28.69,140.37-37.72l-120.25-2.44L241,0,181.38,171.36,0,175.06l128.05,97.1C141.47,265.92,155.61,259.58,170.31,253.28Z"/><path class="cls-3" d="M474.29,180.87c-40.24,13.49-128.09,46.91-205.23,103.86l-1.08.74C184.31,340,118.85,422.31,92.78,457.81L241,354.73l148.9,103.61L337.35,284.7Z"/><polyline class="cls-4" points="372.26 400.06 337.34 284.68 300.27 395.98 389.88 458.34"/><path class="cls-5" d="M240.39,304.9l97-20.2L474.29,180.87C374,214.49,315.18,250.51,240.39,304.9Z"/><polyline class="cls-6" points="240.39 304.9 373.38 403.84 337.35 284.7 337.62 284.44"/><path class="cls-7" d="M300.54,171.36,258.41,50.17,241,0,181.38,171.36,63.23,173.77l54.23,39.46,93-1.89L241,123.51l31.6,91s43.75-15,67.27-21.06c24.89-6.43,81-19.63,81-19.63Z"/><polygon class="cls-8" points="117.46 213.23 181.38 171.36 210.41 211.34 117.46 213.23"/><path class="cls-9" d="M215,74.62l70.73,54.19,14.79,42.55,120.25,2.44S367.38,185.87,341.41,193c-22.69,6.26-68.84,21.45-68.84,21.45l-31.6-91-30.56,87.83-29-40Z"/></g></g></svg>